<svg width="169" height="42" viewBox="0 0 169 42" fill="none" xmlns="http://www.w3.org/2000/svg">
<path d="M44.456 32.136C46.016 32.136 47.264 31.476 48.2 30.156C49.136 28.836 49.604 27.048 49.604 24.792V13.416C49.388 12.936 48.632 12.696 47.336 12.696V11.94H53.096V12.696C51.8 12.696 51.044 12.936 50.828 13.416V24.072C50.828 27.192 50.132 29.52 48.74 31.056C47.372 32.592 45.644 33.36 43.556 33.36C37.796 33.36 34.916 30.264 34.916 24.072V13.416C34.7 12.936 33.944 12.696 32.648 12.696V11.94H41.756V12.696C40.46 12.696 39.704 12.936 39.488 13.416V24.576C39.488 27.024 39.908 28.896 40.748 30.192C41.588 31.488 42.824 32.136 44.456 32.136ZM54.0281 33V32.244C55.3241 32.244 56.0801 32.004 56.2961 31.524V19.32C55.0001 19.224 54.2441 19.176 54.0281 19.176V18.348C54.4841 18.348 55.5881 18.096 57.3401 17.592C59.0921 17.064 60.2441 16.8 60.7961 16.8V18.312C61.9961 17.304 63.3161 16.8 64.7561 16.8C67.0601 16.8 68.8481 17.232 70.1201 18.096C71.3921 18.936 72.0281 20.208 72.0281 21.912V31.524C72.2441 32.004 73.0001 32.244 74.2961 32.244V33H65.2601V32.244C66.5561 32.244 67.3121 32.004 67.5281 31.524V21.66C67.5281 20.58 67.2761 19.704 66.7721 19.032C66.2921 18.36 65.5481 18.024 64.5401 18.024C63.0521 18.024 61.8041 18.504 60.7961 19.464V31.524C61.0121 32.004 61.7681 32.244 63.0641 32.244V33H54.0281ZM75.5085 33V32.244C76.8045 32.244 77.5605 32.004 77.7765 31.524V19.32C76.5285 19.224 75.7725 19.176 75.5085 19.176V18.348C75.9645 18.348 77.0685 18.096 78.8205 17.592C80.5725 17.064 81.7245 16.8 82.2765 16.8V31.524C82.4925 32.004 83.2485 32.244 84.5445 32.244V33H75.5085ZM79.9365 14.496C79.3605 14.496 78.7725 14.292 78.1725 13.884C77.5965 13.452 77.3085 12.948 77.3085 12.372C77.3085 11.868 77.5725 11.4 78.1005 10.968C78.6525 10.536 79.2285 10.32 79.8285 10.32C80.4045 10.32 80.9805 10.536 81.5565 10.968C82.1565 11.376 82.4565 11.88 82.4565 12.48C82.4565 12.984 82.1805 13.452 81.6285 13.884C81.1005 14.292 80.5365 14.496 79.9365 14.496ZM92.4702 33L86.7462 18.636C86.5302 18.156 85.7742 17.916 84.4782 17.916V17.16H92.7222V17.916C92.0262 17.916 91.5222 17.964 91.2102 18.06L95.4942 28.608L99.5982 18.312C99.2622 18.048 98.5902 17.916 97.5822 17.916V17.16H103.486V17.916C102.166 17.916 101.41 18.156 101.218 18.636L95.4942 33H92.4702ZM108.46 24.324C108.508 26.412 108.976 28.212 109.864 29.724C110.776 31.236 111.928 31.992 113.32 31.992C115.408 31.992 117.088 31.2 118.36 29.616L119.224 30.048C118.528 31.2 117.616 32.04 116.488 32.568C115.384 33.096 113.92 33.36 112.096 33.36C111.16 33.36 110.248 33.228 109.36 32.964C108.472 32.676 107.584 32.22 106.696 31.596C105.832 30.948 105.124 30 104.572 28.752C104.044 27.504 103.78 26.016 103.78 24.288C103.78 22.2 104.512 20.436 105.976 18.996C107.464 17.532 109.384 16.8 111.736 16.8C114.304 16.8 116.296 17.532 117.712 18.996C119.128 20.436 119.836 22.212 119.836 24.324H108.46ZM108.496 23.208H115.048C114.904 21.504 114.604 20.196 114.148 19.284C113.716 18.348 113.008 17.88 112.024 17.88C111.16 17.88 110.38 18.324 109.684 19.212C109.012 20.076 108.616 21.408 108.496 23.208ZM121.563 33V32.244C122.859 32.244 123.615 32.004 123.831 31.524V19.32C122.535 19.224 121.779 19.176 121.563 19.176V18.348C122.019 18.348 123.123 18.096 124.875 17.592C126.627 17.064 127.779 16.8 128.331 16.8V18.312C129.579 17.304 130.767 16.8 131.895 16.8C134.871 16.8 136.359 17.52 136.359 18.96C136.359 19.536 136.179 19.992 135.819 20.328C135.483 20.664 135.063 20.832 134.559 20.832C134.007 20.832 133.587 20.688 133.299 20.4C133.011 20.112 132.831 19.788 132.759 19.428C132.687 19.068 132.543 18.744 132.327 18.456C132.135 18.168 131.847 18.024 131.463 18.024C130.551 18.024 129.507 18.528 128.331 19.536V31.524C128.547 32.004 129.303 32.244 130.599 32.244V33H121.563ZM143.795 31.92C145.427 31.92 146.243 31.176 146.243 29.688C146.243 29.28 145.955 28.884 145.379 28.5C144.803 28.092 144.107 27.696 143.291 27.312C142.475 26.904 141.659 26.448 140.843 25.944C140.027 25.44 139.331 24.78 138.755 23.964C138.179 23.124 137.891 22.188 137.891 21.156C137.891 19.812 138.395 18.756 139.403 17.988C140.435 17.196 141.659 16.8 143.075 16.8C143.891 16.8 144.731 16.98 145.595 17.34C146.459 17.7 146.951 17.88 147.071 17.88C147.359 17.88 147.503 17.64 147.503 17.16H148.331L148.691 22.416H147.899C147.659 21.408 147.035 20.424 146.027 19.464C145.043 18.504 144.095 18.024 143.183 18.024C141.479 18.024 140.627 18.648 140.627 19.896C140.627 20.328 141.095 20.832 142.031 21.408C142.967 21.96 143.987 22.5 145.091 23.028C146.195 23.556 147.215 24.312 148.151 25.296C149.087 26.28 149.555 27.36 149.555 28.536C149.555 30.024 148.991 31.2 147.863 32.064C146.735 32.928 145.283 33.36 143.507 33.36C142.643 33.36 141.767 33.18 140.879 32.82C139.991 32.46 139.499 32.28 139.403 32.28C139.115 32.28 138.971 32.52 138.971 33H138.107L137.747 27.492H138.539C138.779 28.452 139.499 29.436 140.699 30.444C141.923 31.428 142.955 31.92 143.795 31.92ZM156.484 24.324C156.532 26.412 157 28.212 157.888 29.724C158.8 31.236 159.952 31.992 161.344 31.992C163.432 31.992 165.112 31.2 166.384 29.616L167.248 30.048C166.552 31.2 165.64 32.04 164.512 32.568C163.408 33.096 161.944 33.36 160.12 33.36C159.184 33.36 158.272 33.228 157.384 32.964C156.496 32.676 155.608 32.22 154.72 31.596C153.856 30.948 153.148 30 152.596 28.752C152.068 27.504 151.804 26.016 151.804 24.288C151.804 22.2 152.536 20.436 154 18.996C155.488 17.532 157.408 16.8 159.76 16.8C162.328 16.8 164.32 17.532 165.736 18.996C167.152 20.436 167.86 22.212 167.86 24.324H156.484ZM156.52 23.208H163.072C162.928 21.504 162.628 20.196 162.172 19.284C161.74 18.348 161.032 17.88 160.048 17.88C159.184 17.88 158.404 18.324 157.708 19.212C157.036 20.076 156.64 21.408 156.52 23.208Z" fill="#313131"/>
<g clip-path="url(#clip0_80_14)">
<path d="M12.2103 26.1599C14.5982 26.1599 16.5339 24.2241 16.5339 21.8363C16.5339 19.4484 14.5982 17.5127 12.2103 17.5127C9.82245 17.5127 7.88672 19.4484 7.88672 21.8363C7.88672 24.2241 9.82245 26.1599 12.2103 26.1599Z" stroke="#313131" stroke-linecap="round" stroke-linejoin="round"/>
<path d="M22.0847 26.2323C21.3747 27.8272 20.289 29.2263 18.9204 30.3101C17.5518 31.3939 15.9411 32.1301 14.226 32.4557C12.5109 32.7814 10.7424 32.6867 9.07182 32.18C7.40125 31.6732 5.87826 30.7694 4.63312 29.5458C3.38797 28.3221 2.45771 26.8152 1.92189 25.1537C1.38607 23.4922 1.26064 21.7256 1.55632 20.0051C1.852 18.2846 2.55999 16.6613 3.61975 15.274C4.67951 13.8867 6.05951 12.7768 7.64172 12.039M16.4335 11.8857C18.9522 12.9552 20.9716 14.9398 22.0847 17.4395" stroke="#313131" stroke-linecap="round" stroke-linejoin="round"/>
<path d="M12.1031 12.9577C13.0981 12.9577 13.9047 12.1511 13.9047 11.1561C13.9047 10.1611 13.0981 9.35449 12.1031 9.35449C11.1081 9.35449 10.3015 10.1611 10.3015 11.1561C10.3015 12.1511 11.1081 12.9577 12.1031 12.9577Z" stroke="#313131" stroke-linecap="round" stroke-linejoin="round"/>
<path d="M22.7982 23.6373C23.7932 23.6373 24.5997 22.8307 24.5997 21.8358C24.5997 20.8408 23.7932 20.0342 22.7982 20.0342C21.8032 20.0342 20.9966 20.8408 20.9966 21.8358C20.9966 22.8307 21.8032 23.6373 22.7982 23.6373Z" stroke="#313131" stroke-linecap="round" stroke-linejoin="round"/>
</g>
<defs>
<clipPath id="clip0_80_14">
<rect width="26" height="26" fill="white" transform="translate(0 8)"/>
</clipPath>
</defs>
</svg>
